<?xml version="1.0" encoding="UTF-8"?>
<!DOCTYPE svg PUBLIC "-//W3C//DTD SVG 1.1//EN" "http://www.w3.org/Graphics/SVG/1.1/DTD/svg11.dtd">
<!-- Creator: CorelDRAW -->
<svg xmlns="http://www.w3.org/2000/svg" xml:space="preserve" width="108.373mm" height="104.996mm" version="1.1" style="shape-rendering:geometricPrecision; text-rendering:geometricPrecision; image-rendering:optimizeQuality; fill-rule:evenodd; clip-rule:evenodd" viewBox="0 0 377.02 369.85" xmlns:xlink="http://www.w3.org/1999/xlink">
 <defs>
  <style type="text/css">
   <![CDATA[
    .str0 {stroke:black;stroke-width:11.67;stroke-miterlimit:22.9256}
    .str1 {stroke:black;stroke-width:11.67;stroke-linejoin:round;stroke-miterlimit:22.9256}
    .fil8 {fill:#9D9E9E}
    .fil0 {fill:#1F1E1E}
    .fil9 {fill:#25588A}
    .fil16 {fill:#35932C}
    .fil15 {fill:#44A23A}
    .fil14 {fill:#52B149}
    .fil13 {fill:#61C057}
    .fil12 {fill:#6FCE65}
    .fil11 {fill:#7EDD74}
    .fil10 {fill:#8CEC82}
    .fil1 {fill:#CED0D0}
    .fil17 {fill:#002700;fill-rule:nonzero}
    .fil7 {fill:url(#id0)}
    .fil2 {fill:url(#id1)}
    .fil4 {fill:url(#id2)}
    .fil6 {fill:url(#id3)}
    .fil3 {fill:url(#id4)}
    .fil5 {fill:url(#id5)}
   ]]>
  </style>
  <linearGradient id="id0" gradientUnits="userSpaceOnUse" x1="169.84" y1="196.86" x2="169.84" y2="142.83">
   <stop offset="0" style="stop-opacity:1; stop-color:#959899"/>
   <stop offset="1" style="stop-opacity:1; stop-color:#FEFEFE"/>
  </linearGradient>
  <linearGradient id="id1" gradientUnits="userSpaceOnUse" x1="78.39" y1="93.07" x2="261.3" y2="93.07">
   <stop offset="0" style="stop-opacity:1; stop-color:white"/>
   <stop offset="1" style="stop-opacity:1; stop-color:#9D9E9E"/>
  </linearGradient>
  <linearGradient id="id2" gradientUnits="userSpaceOnUse" xlink:href="#id1" x1="198.7" y1="285.71" x2="50.73" y2="178.2">
  </linearGradient>
  <linearGradient id="id3" gradientUnits="userSpaceOnUse" xlink:href="#id1" x1="214.6" y1="59.15" x2="271.12" y2="233.09">
  </linearGradient>
  <linearGradient id="id4" gradientUnits="userSpaceOnUse" xlink:href="#id1" x1="68.57" y1="233.09" x2="125.09" y2="59.15">
  </linearGradient>
  <linearGradient id="id5" gradientUnits="userSpaceOnUse" xlink:href="#id1" x1="288.95" y1="178.2" x2="140.99" y2="285.71">
  </linearGradient>
 </defs>
 <g id="Слой_x0020_1">
  <metadata id="CorelCorpID_0Corel-Layer"/>
  <g id="_1046838800">
   <ellipse class="fil0" cx="169.84" cy="334.82" rx="114.17" ry="9.36"/>
   <path class="fil1 str0" d="M169.84 5.83c90.58,0 164.01,73.43 164.01,164.01 0,90.58 -73.43,164.01 -164.01,164.01 -90.58,0 -164.01,-73.43 -164.01,-164.01 0,-90.58 73.43,-164.01 164.01,-164.01z"/>
   <path class="fil2" d="M187.64 143.77l73.66 -101.39c-107.94,78.97 -74.96,78.97 -182.9,0l73.66 101.39c4.99,-3.63 11.15,-5.78 17.79,-5.78 6.65,0 12.8,2.15 17.79,5.78z"/>
   <path class="fil3" d="M150.54 144.87l-73.66 -101.39c41.75,127.06 51.94,95.69 -56.52,173.95l119.19 -38.73c-1.91,-5.87 -2.06,-12.38 -0.01,-18.7 2.05,-6.32 6,-11.5 11,-15.13z"/>
   <path class="fil4" d="M140.13 180.49l-119.19 38.73c133.74,-0.44 107.06,-19.83 147.97,107.51l-0.01 -125.33c-6.17,0.01 -12.4,-1.87 -17.78,-5.78 -5.37,-3.9 -9.09,-9.26 -10.99,-15.13z"/>
   <path class="fil5" d="M170.78 201.4l0 125.32c40.91,-127.34 14.22,-107.95 147.97,-107.5l-119.2 -38.73c-1.9,5.87 -5.61,11.22 -10.99,15.13 -5.37,3.9 -11.62,5.78 -17.79,5.78z"/>
   <path class="fil6" d="M200.14 178.7l119.19 38.73c-108.46,-78.25 -98.27,-46.88 -56.52,-173.95l-73.67 101.4c4.99,3.62 8.94,8.8 11,15.12 2.05,6.32 1.9,12.84 -0.01,18.7z"/>
   <path class="fil7 str0" d="M169.84 142.83c14.92,0 27.01,12.09 27.01,27.01 0,14.92 -12.09,27.01 -27.01,27.01 -14.92,0 -27.01,-12.09 -27.01,-27.01 0,-14.92 12.09,-27.01 27.01,-27.01z"/>
   <g>
    <path class="fil8 str1" d="M89.4 280.57c-15.06,-10.94 -18.4,-32.01 -7.46,-47.07 10.94,-15.06 32.01,-18.4 47.07,-7.46 15.06,10.94 18.4,32.01 7.46,47.07 -10.94,15.05 -32.02,18.4 -47.07,7.46zm160.88 0c-15.05,10.94 -36.13,7.6 -47.07,-7.46 -10.94,-15.06 -7.6,-36.13 7.46,-47.07 15.06,-10.94 36.13,-7.6 47.07,7.46 10.93,15.06 7.6,36.13 -7.46,47.07zm49.72 -153.01c5.75,17.7 -3.94,36.71 -21.64,42.46 -17.7,5.75 -36.71,-3.93 -42.46,-21.63 -5.75,-17.7 3.94,-36.71 21.64,-42.46 17.7,-5.75 36.71,3.93 42.46,21.63zm-130.16 -94.57c18.61,0 33.7,15.09 33.7,33.7 0,18.61 -15.09,33.7 -33.7,33.7 -18.61,0 -33.7,-15.09 -33.7,-33.7 0,-18.61 15.09,-33.7 33.7,-33.7zm-130.16 94.57c5.75,-17.7 24.76,-27.39 42.46,-21.63 17.7,5.75 27.39,24.76 21.64,42.46 -5.75,17.7 -24.77,27.39 -42.46,21.63 -17.7,-5.75 -27.39,-24.76 -21.64,-42.46z"/>
    <path class="fil9 str1" d="M169.85 68.54c11.52,0 22.59,1.93 32.9,5.47 -3.34,15.09 -16.8,26.37 -32.9,26.37 -16.1,0 -29.56,-11.28 -32.9,-26.37 10.31,-3.54 21.38,-5.47 32.9,-5.47zm80.96 40.41c12.77,16.95 20.34,38.03 20.34,60.89l-0.02 1.67c-15.37,1.47 -30.24,-7.84 -35.22,-23.14 -4.96,-15.3 1.59,-31.57 14.89,-39.42zm1.97 119.07c-12.81,18.21 -31.45,32.01 -53.21,38.68 -6.16,-14.17 -1.91,-31.21 11.11,-40.67 13.02,-9.46 30.52,-8.24 42.1,1.99zm-112.64 38.68c-21.77,-6.67 -40.42,-20.47 -53.21,-38.68 11.58,-10.23 29.08,-11.45 42.1,-1.99 13.02,9.46 17.27,26.5 11.11,40.67zm-71.56 -95.19l-0.02 -1.67c0,-22.85 7.57,-43.94 20.34,-60.89 13.3,7.85 19.86,24.12 14.89,39.42 -4.97,15.3 -19.85,24.61 -35.22,23.14z"/>
   </g>
   <ellipse class="fil0" cx="303.78" cy="362.93" rx="65.14" ry="6.93"/>
   <path class="fil10" d="M255.56 226.72l112.79 56.39c4.05,2.03 6.45,5.92 6.45,10.44 0,4.53 -2.4,8.41 -6.45,10.44l-112.79 56.39c-3.72,1.86 -7.81,1.67 -11.36,-0.51 -3.53,-2.19 -5.52,-5.77 -5.52,-9.93l0 -112.79c0,-4.16 2,-7.74 5.52,-9.93 3.55,-2.18 7.64,-2.37 11.36,-0.51z"/>
   <g>
    <path class="fil11" d="M257.92 231.07c35.15,17.57 70.29,35.15 105.44,52.72 3.79,1.9 6.03,5.53 6.03,9.76 0,4.23 -2.25,7.86 -6.03,9.76 -35.15,17.57 -70.3,35.15 -105.44,52.72 -3.48,1.73 -7.3,1.56 -10.62,-0.48 -3.3,-2.05 -5.17,-5.4 -5.17,-9.29 0,-35.15 0,-70.29 0,-105.44 0,-3.89 1.87,-7.23 5.17,-9.29 3.31,-2.04 7.14,-2.21 10.62,-0.48z"/>
    <path class="fil12" d="M260.28 235.42c32.7,16.35 65.4,32.7 98.1,49.05 3.53,1.77 5.61,5.15 5.61,9.08 0,3.94 -2.08,7.32 -5.61,9.08 -32.69,16.35 -65.4,32.69 -98.1,49.05 -3.24,1.61 -6.79,1.45 -9.88,-0.45 -3.07,-1.91 -4.81,-5.02 -4.81,-8.63 0,-32.7 0,-65.4 0,-98.1 0,-3.62 1.74,-6.73 4.81,-8.63 3.09,-1.9 6.64,-2.06 9.88,-0.45z"/>
    <path class="fil13" d="M262.64 239.78c30.25,15.12 60.5,30.25 90.75,45.37 3.26,1.63 5.19,4.76 5.19,8.4 0,3.64 -1.93,6.77 -5.19,8.4 -30.25,15.12 -60.5,30.25 -90.75,45.37 -2.99,1.49 -6.28,1.35 -9.14,-0.41 -2.84,-1.77 -4.45,-4.64 -4.45,-7.99 0,-30.25 0,-60.49 0,-90.74 0,-3.35 1.61,-6.23 4.45,-7.99 2.85,-1.76 6.14,-1.9 9.14,-0.41z"/>
    <path class="fil14" d="M265.01 244.13c27.8,13.9 55.6,27.8 83.41,41.7 2.99,1.5 4.77,4.37 4.77,7.72 0,3.35 -1.78,6.22 -4.77,7.72 -27.81,13.9 -55.61,27.81 -83.41,41.7 -2.75,1.38 -5.78,1.24 -8.4,-0.37 -2.61,-1.62 -4.09,-4.26 -4.09,-7.35 0,-27.8 0,-55.61 0,-83.41 0,-3.08 1.48,-5.72 4.09,-7.35 2.62,-1.61 5.65,-1.75 8.4,-0.37z"/>
    <path class="fil15" d="M267.36 248.48c25.36,12.68 50.71,25.36 76.06,38.03 2.74,1.37 4.35,3.99 4.35,7.04 0,3.05 -1.62,5.67 -4.35,7.04 -25.35,12.67 -50.7,25.35 -76.06,38.03 -2.51,1.25 -5.27,1.13 -7.65,-0.34 -2.39,-1.48 -3.73,-3.89 -3.73,-6.7 0,-25.35 0,-50.7 0,-76.05 0,-2.81 1.35,-5.22 3.73,-6.7 2.39,-1.48 5.15,-1.6 7.65,-0.34z"/>
   </g>
   <path class="fil16" d="M269.73 252.84l68.71 34.36c2.47,1.24 3.93,3.6 3.93,6.36 0,2.76 -1.46,5.12 -3.93,6.36l-68.71 34.36c-2.27,1.13 -4.76,1.02 -6.92,-0.31 -2.15,-1.34 -3.37,-3.51 -3.37,-6.05l0 -68.71c0,-2.54 1.22,-4.71 3.37,-6.05 2.16,-1.33 4.65,-1.44 6.92,-0.31z"/>
   <path class="fil17" d="M256.55 224.73l112.79 56.4c2.4,1.2 4.33,2.97 5.64,5.1 1.32,2.14 2.04,4.65 2.04,7.32 0,2.67 -0.72,5.18 -2.05,7.32 -1.3,2.13 -3.23,3.9 -5.64,5.1l-112.79 56.39c-2.19,1.1 -4.53,1.59 -6.83,1.5 -2.31,-0.1 -4.59,-0.81 -6.69,-2.1 -2.09,-1.31 -3.75,-3.03 -4.87,-5.04 -1.12,-2.01 -1.72,-4.33 -1.72,-6.78l0 -112.79c0,-2.45 0.6,-4.77 1.72,-6.78 1.11,-2.01 2.77,-3.73 4.87,-5.03 2.09,-1.3 4.38,-2.01 6.68,-2.11 2.3,-0.09 4.64,0.4 6.83,1.49zm110.8 60.35l-112.78 -56.39c-1.52,-0.74 -3.12,-1.09 -4.67,-1.02 -1.54,0.06 -3.1,0.56 -4.54,1.45 -1.43,0.88 -2.56,2.06 -3.31,3.42 -0.75,1.34 -1.15,2.92 -1.15,4.62l0 112.79c0,1.7 0.4,3.28 1.15,4.62 0.75,1.36 1.88,2.54 3.31,3.42 1.44,0.88 3,1.38 4.54,1.44 1.55,0.06 3.14,-0.28 4.66,-1.03l112.79 -56.38c1.64,-0.82 2.96,-2.02 3.84,-3.47 0.89,-1.43 1.38,-3.14 1.38,-5 0,-1.86 -0.48,-3.57 -1.37,-5 -0.89,-1.44 -2.21,-2.64 -3.85,-3.47z"/>
  </g>
 </g>
</svg>