<?xml version="1.0" encoding="UTF-8" standalone="no"?>
<!-- Created with Inkscape (http://www.inkscape.org/) -->

<svg
   version="1.1"
   id="svg2901"
   xml:space="preserve"
   width="682.66669"
   height="682.66669"
   viewBox="0 0 682.66669 682.66669"
   xmlns="http://www.w3.org/2000/svg"
   xmlns:svg="http://www.w3.org/2000/svg"><defs
     id="defs2905"><clipPath
       clipPathUnits="userSpaceOnUse"
       id="clipPath2915"><path
         d="M 0,512 H 512 V 0 H 0 Z"
         id="path2913" /></clipPath></defs><g
     id="g2907"
     transform="matrix(1.3333333,0,0,-1.3333333,0,682.66667)"><g
       id="g2909"><g
         id="g2911"
         clip-path="url(#clipPath2915)"><g
           id="g2917"
           transform="translate(358,94)"><path
             d="M 0,0 V -42.481 C 0,-70.41 33.078,-84.488 52.876,-64.863 l 63.102,62.552 c 24.03,23.821 24.03,62.801 0,86.622 L 52.876,146.863 C 33.078,166.488 0,152.41 0,124.481 V 101 80 h -238 c -22.091,0 -40,-17.909 -40,-40 0,-22.091 17.909,-40 40,-40 h 32"
             style="fill:none;stroke:#FFFFFF;stroke-width:40;stroke-linecap:round;stroke-linejoin:round;stroke-miterlimit:10;stroke-dasharray:none;stroke-opacity:1"
             id="path2919" /></g><g
           id="g2921"
           transform="translate(228,94)"><path
             d="M 0,0 H 54"
             style="fill:none;stroke:#FFFFFF;stroke-width:40;stroke-linecap:round;stroke-linejoin:round;stroke-miterlimit:10;stroke-dasharray:none;stroke-opacity:1"
             id="path2923" /></g><g
           id="g2925"
           transform="translate(38.0225,420.311)"><path
             d="m 0,0 63.102,62.552 c 19.797,19.625 53.876,5.547 53.876,-22.382 V -4.311 h 237 c 22.09,0 40,-17.909 40,-40 0,-22.091 -17.91,-40 -40,-40 h -237 v -42.481 c 0,-27.929 -34.079,-42.007 -53.876,-22.382 L 0,-86.622 C -24.03,-62.801 -24.03,-23.821 0,0 Z"
             style="fill:none;stroke:#FFFFFF;stroke-width:40;stroke-linecap:round;stroke-linejoin:round;stroke-miterlimit:10;stroke-dasharray:none;stroke-opacity:1"
             id="path2927" /></g></g></g></g></svg>
