<?xml version="1.0" encoding="utf-8"?>
<!-- Generator: Adobe Illustrator 25.3.1, SVG Export Plug-In . SVG Version: 6.00 Build 0)  -->
<svg version="1.1" id="Слой_1" xmlns="http://www.w3.org/2000/svg" xmlns:xlink="http://www.w3.org/1999/xlink" x="0px" y="0px"
	 viewBox="0 0 64 64" style="enable-background:new 0 0 64 64;" xml:space="preserve">
<style type="text/css">
	.st0{fill:#72716F;}
	.st1{fill:#F2CB30;}
	.st2{fill:#58595A;}
	.st3{fill:#3E3D40;}
</style>
<g>
	<g id="XMLID_56_">
		<path class="st0" d="M43.5,23.5l0,1.8l4.6,0l0-1.8c0.1-9.1-7.3-16.6-16.4-16.7C22.5,6.8,15,14.1,14.9,23.3l-0.1,15.1l4.6,0
			l0.1-15.1c0-6.6,5.5-11.9,12.1-11.9C38.2,11.5,43.5,16.9,43.5,23.5z"/>
	</g>
	<g id="XMLID_54_">
		<path id="XMLID_55_" class="st1" d="M55.5,55.4c0,1-0.8,1.8-1.8,1.8H10.2c-1,0-1.8-0.8-1.8-1.8V27.1c0-1,0.8-1.8,1.8-1.8h43.5
			c1,0,1.8,0.8,1.8,1.8V55.4z"/>
	</g>
	<path class="st2" d="M35.9,36.4c0-2.1-1.7-3.9-3.9-3.9s-3.9,1.7-3.9,3.9c0,1.3,0.6,2.4,1.6,3.1l-1.2,8.8h7.1l-1.2-8.8
		C35.3,38.9,35.9,37.7,35.9,36.4z"/>
	<path class="st3" d="M28.4,48.4c0,0,5.3-1.5,5.9-8.8l1.2,8.8H28.4z"/>
</g>
</svg>
