<?xml version="1.0" encoding="UTF-8" standalone="no"?>
<!-- Created with Inkscape (http://www.inkscape.org/) -->

<svg
   version="1.1"
   id="svg2511"
   xml:space="preserve"
   width="682.66669"
   height="682.66669"
   viewBox="0 0 682.66669 682.66669"
   xmlns="http://www.w3.org/2000/svg"
   xmlns:svg="http://www.w3.org/2000/svg"><defs
     id="defs2515"><clipPath
       clipPathUnits="userSpaceOnUse"
       id="clipPath2525"><path
         d="M 0,512 H 512 V 0 H 0 Z"
         id="path2523" /></clipPath></defs><g
     id="g2517"
     transform="matrix(1.3333333,0,0,-1.3333333,0,682.66667)"><g
       id="g2519"><g
         id="g2521"
         clip-path="url(#clipPath2525)"><g
           id="g2527"
           transform="translate(180,116)"><path
             d="m 0,0 c 0,-22.091 -17.909,-40 -40,-40 -22.091,0 -40,17.909 -40,40 0,22.091 17.909,40 40,40 C -17.909,40 0,22.091 0,0 Z"
             style="fill:none;stroke:#ffffff;stroke-width:40;stroke-linecap:round;stroke-linejoin:round;stroke-miterlimit:10;stroke-dasharray:none;stroke-opacity:1"
             id="path2529" /></g><g
           id="g2531"
           transform="translate(412,116)"><path
             d="m 0,0 c 0,-22.091 -17.909,-40 -40,-40 -22.091,0 -40,17.909 -40,40 0,22.091 17.909,40 40,40 C -17.909,40 0,22.091 0,0 Z"
             style="fill:none;stroke:#ffffff;stroke-width:40;stroke-linecap:round;stroke-linejoin:round;stroke-miterlimit:10;stroke-dasharray:none;stroke-opacity:1"
             id="path2533" /></g><g
           id="g2535"
           transform="translate(244.0078,116)"><path
             d="M 0,0 H 23.984"
             style="fill:none;stroke:#ffffff;stroke-width:40;stroke-linecap:round;stroke-linejoin:round;stroke-miterlimit:10;stroke-dasharray:none;stroke-opacity:1"
             id="path2537" /></g><g
           id="g2539"
           transform="translate(412,116)"><path
             d="m 0,0 h 40 c 22.092,0 40,17.91 40,40 v 40 c 0,44.185 -35.818,80 -80,80 v 40 c 0,66.274 -53.726,120 -120,120 h -72 c -66.274,0 -120,-53.726 -120,-120 v -40 c -44.182,0 -80,-35.815 -80,-80 V 40 c 0,-22.09 17.908,-40 40,-40 h 40"
             style="fill:none;stroke:#ffffff;stroke-width:40;stroke-linecap:round;stroke-linejoin:round;stroke-miterlimit:10;stroke-dasharray:none;stroke-opacity:1"
             id="path2541" /></g><g
           id="g2543"
           transform="translate(256,356)"><path
             d="M 0,0 V -80"
             style="fill:none;stroke:#ffffff;stroke-width:40;stroke-linecap:round;stroke-linejoin:round;stroke-miterlimit:10;stroke-dasharray:none;stroke-opacity:1"
             id="path2545" /></g><g
           id="g2547"
           transform="translate(180,276)"><path
             d="M 0,0 H 152"
             style="fill:none;stroke:#ffffff;stroke-width:40;stroke-linecap:round;stroke-linejoin:round;stroke-miterlimit:10;stroke-dasharray:none;stroke-opacity:1"
             id="path2549" /></g></g></g></g></svg>
