<svg width="11" height="9" viewBox="0 0 11 9" fill="none" xmlns="http://www.w3.org/2000/svg">
<path d="M4.07333 8.50751C3.98192 8.50721 3.89154 8.48812 3.80782 8.45142C3.7241 8.41472 3.64882 8.3612 3.58666 8.29418L0.346663 4.84751C0.225547 4.71844 0.160666 4.54654 0.166292 4.36963C0.171918 4.19272 0.247591 4.02529 0.376663 3.90418C0.505735 3.78306 0.677633 3.71818 0.854543 3.7238C1.03145 3.72943 1.19888 3.8051 1.32 3.93418L4.06666 6.86084L9.67333 0.727509C9.73023 0.656657 9.80101 0.598185 9.88133 0.555684C9.96164 0.513183 10.0498 0.487551 10.1404 0.480361C10.231 0.473172 10.3221 0.484577 10.4081 0.513876C10.4941 0.543175 10.5732 0.58975 10.6406 0.650739C10.7079 0.711729 10.7621 0.785845 10.7998 0.868537C10.8375 0.951229 10.8579 1.04075 10.8597 1.1316C10.8615 1.22245 10.8447 1.31272 10.8104 1.39685C10.776 1.48098 10.7249 1.55721 10.66 1.62084L4.56666 8.28751C4.50509 8.35574 4.43007 8.41051 4.34632 8.44837C4.26257 8.48623 4.1719 8.50637 4.08 8.50751H4.07333Z" fill="white"/>
</svg>
