<svg width="20" height="16" viewBox="0 0 20 16" fill="none" xmlns="http://www.w3.org/2000/svg">
<path d="M3.707 0.293041C3.5184 0.110883 3.2658 0.0100885 3.0036 0.0123669C2.7414 0.0146453 2.49059 0.119815 2.30518 0.305223C2.11977 0.490631 2.0146 0.741443 2.01233 1.00364C2.01005 1.26584 2.11084 1.51844 2.293 1.70704L16.293 15.707C16.4816 15.8892 16.7342 15.99 16.9964 15.9877C17.2586 15.9854 17.5094 15.8803 17.6948 15.6949C17.8802 15.5095 17.9854 15.2586 17.9877 14.9964C17.99 14.7342 17.8892 14.4816 17.707 14.293L17.703 14.288C19.57 12.498 20 9.93804 20 8.00004C20.0016 6.68659 19.7437 5.38576 19.241 4.17229C18.7384 2.95882 18.0009 1.85663 17.071 0.929041C16.9788 0.833531 16.8684 0.757349 16.7464 0.70494C16.6244 0.652531 16.4932 0.624945 16.3604 0.623791C16.2276 0.622637 16.0959 0.647939 15.973 0.698219C15.8501 0.7485 15.7385 0.822753 15.6446 0.916646C15.5507 1.01054 15.4765 1.12219 15.4262 1.24509C15.3759 1.36798 15.3506 1.49966 15.3517 1.63244C15.3529 1.76522 15.3805 1.89644 15.4329 2.01845C15.4853 2.14045 15.5615 2.25079 15.657 2.34304C16.4012 3.08495 16.9913 3.96671 17.3934 4.93756C17.7955 5.90842 18.0017 6.94921 18 8.00004C18 9.75204 17.597 11.636 16.288 12.873L14.855 11.44C15.616 10.37 16 9.10704 16 8.00004C16 6.32204 15.31 4.80304 14.2 3.71504C14.1067 3.62092 13.9956 3.54629 13.8732 3.49547C13.7508 3.44466 13.6196 3.41868 13.487 3.41905C13.3545 3.41941 13.2234 3.44612 13.1013 3.4976C12.9792 3.54909 12.8685 3.62434 12.7757 3.71897C12.683 3.8136 12.6099 3.92573 12.5609 4.04884C12.5118 4.17195 12.4877 4.30358 12.4899 4.43608C12.4922 4.56859 12.5208 4.69932 12.574 4.82069C12.6272 4.94205 12.7041 5.05163 12.8 5.14304C13.18 5.51551 13.4818 5.96004 13.6879 6.45062C13.894 6.94119 14.0001 7.46795 14 8.00004C14 8.60604 13.805 9.33504 13.41 9.99604L11 7.58604V2.13504C11 0.439041 9.022 -0.486959 7.72 0.599041L5.698 2.28404L3.708 0.293041H3.707ZM2 4.00004H2.586L11 12.414V13.865C11 15.561 9.022 16.487 7.72 15.401L3.638 12H2C1.46957 12 0.960859 11.7893 0.585786 11.4143C0.210714 11.0392 0 10.5305 0 10V6.00004C0 5.46961 0.210714 4.9609 0.585786 4.58583C0.960859 4.21075 1.46957 4.00004 2 4.00004Z" fill="white"/>
</svg>
