<svg width="12" height="9" viewBox="0 0 12 9" fill="none" xmlns="http://www.w3.org/2000/svg">
<path d="M4.57333 8.6767C4.48192 8.6764 4.39154 8.65731 4.30782 8.62061C4.2241 8.58391 4.14882 8.53039 4.08666 8.46336L0.846663 5.0167C0.725547 4.88763 0.660666 4.71573 0.666292 4.53882C0.671918 4.36191 0.747591 4.19448 0.876663 4.07336C1.00573 3.95225 1.17763 3.88737 1.35454 3.89299C1.53145 3.89862 1.69888 3.97429 1.82 4.10336L4.56666 7.03003L10.1733 0.896698C10.2302 0.825846 10.301 0.767375 10.3813 0.724874C10.4616 0.682373 10.5498 0.65674 10.6404 0.649551C10.731 0.642361 10.8221 0.653766 10.9081 0.683066C10.9941 0.712365 11.0732 0.758939 11.1406 0.819929C11.2079 0.880918 11.2621 0.955035 11.2998 1.03773C11.3375 1.12042 11.3579 1.20994 11.3597 1.30079C11.3615 1.39164 11.3447 1.48191 11.3104 1.56604C11.276 1.65017 11.2249 1.7264 11.16 1.79003L5.06666 8.4567C5.00509 8.52493 4.93007 8.5797 4.84632 8.61756C4.76257 8.65542 4.6719 8.67556 4.58 8.6767H4.57333Z" fill="white"/>
</svg>
